<?xml version="1.0" encoding="UTF-8"?>
<svg id="Warstwa_1" data-name="Warstwa 1" xmlns="http://www.w3.org/2000/svg" viewBox="0 0 287 600">
  <defs>
    <style>
      .cls-1 {
        fill: #b9fbf4;
      }

      .cls-2 {
        fill: #000000;
      }
    </style>
  </defs>
  <path class="cls-2" d="M127.36,0c2,1.03,2.65,2.67,2.64,4.9-.06,14.72-.03,29.43-.03,44.15,0,3.1,1.35,4.44,4.46,4.44,5.51,0,11.02,0,16.54,0,2.51,0,3.48,.98,3.49,3.46,0,2.48,0,4.96,0,7.44,0,2.04-1.05,3.08-3.11,3.08-33.63,0-67.27,0-100.9,0-2.01,0-3.1-1.08-3.11-3.11-.02-2.56-.01-5.12,0-7.68,.01-2.06,1.12-3.17,3.19-3.18,5.71-.02,11.42,0,17.14,0,2.71,0,4.24-1.49,4.26-4.21,.02-4.92,0-9.84,0-14.76,0-10,.04-20-.03-29.99-.02-2.19,.69-3.71,2.73-4.53h52.74Z"/>
  <path class="cls-1" d="M70.54,600c.01-.08,0-.15,0-.23,3.04,0,6.09,0,9.13,0-.02,.07-.02,.15,0,.22h-9.11Z"/>
  <path class="cls-1" d="M122.32,600c0-.07,0-.14-.02-.21,2.97,0,5.93,0,8.9,0-.02,.07-.02,.15-.01,.22h-8.87Z"/>
  <path class="cls-2" d="M178.15,251.29c-6.48-14.34-13.01-28.65-19.52-42.98-.41-.91-.8-1.83-1.26-2.72-.6-1.16-1.7-1.63-2.91-1.33-1.1,.27-1.88,1.23-1.92,2.45-.18,5.19-.34,10.38-.51,15.57-.24,7.39-.48,14.77-.72,22.16-.16,4.71-.32,9.42-.48,14.13-.24,7.27-.48,14.53-.72,21.8-.15,4.63-.32,9.26-.48,13.89-.24,7.39-.48,14.77-.72,22.16-.15,4.63-.32,9.26-.47,13.89-.24,7.31-.48,14.61-.72,21.92-.15,4.63-.32,9.26-.48,13.89-.08,2.27-.13,4.55-.25,6.82-.12,2.32-1.74,3.85-4.05,3.85-28.04,0-56.09,0-84.13,0-2.19,0-3.78-1.41-3.88-3.57-.21-4.63-.34-9.26-.5-13.89-.25-7.39-.48-14.77-.72-22.16-.16-4.75-.32-9.5-.48-14.25-.24-7.18-.48-14.37-.72-21.55-.16-4.67-.32-9.34-.48-14.01-.24-7.35-.48-14.69-.72-22.04-.15-4.59-.32-9.18-.47-13.77-.24-7.39-.48-14.77-.72-22.16-.16-4.71-.31-9.42-.48-14.13-.1-2.83-.21-5.66-.39-8.49-.1-1.54-.81-2.31-2.07-2.54-1.27-.22-2.28,.35-2.92,1.75-2.61,5.7-5.19,11.41-7.79,17.12-4.17,9.16-8.3,18.34-12.52,27.48-2.05,4.46-2.04,8.97-1.05,13.68,3.02,14.49,5.9,29.01,8.83,43.51,2.7,13.37,5.39,26.74,8.1,40.11,.69,3.39-.66,4.99-4.77,5.9s-7.74,2.33-11.45,3.96c-2.99,1.31-5.5-.03-6.03-3.07-2.88-16.54-5.76-33.09-8.65-49.63-2.21-12.65-4.44-25.3-6.65-37.95-.71-4.09-1.47-8.17-2.08-12.27-.45-3.01-.08-5.98,1.06-8.82,10.42-25.89,20.84-51.79,31.27-77.67,2.66-6.6,8.77-10.66,15.9-10.66,17.5,0,35,0,52.49,0,17.54,0,35.08,0,52.61,0,6.91,0,13.04,4.05,15.65,10.49,5.82,14.36,11.59,28.73,17.38,43.1,3.14,7.8,6.27,15.6,9.42,23.39,2.42,5.98,9.24,8.86,15.21,6.43l65.71-26.69c2.83-1.15,6.06,.09,7.39,2.83l.98,2c1.49,3.05,3.05,11.72-.11,12.95l-86.91,33.8c-6.48,2.52-13.77-.74-16.21-7.26l-3.91-7.42Z"/>
  <path class="cls-2" d="M138.93,478.69c0,27.8,0,55.59,0,83.39,0,3.28-1.54,4.83-4.81,4.83-6.91,0-13.82,0-20.73,0-3.07,0-4.6-1.56-4.76-4.61-.42-7.89-.91-15.78-1.36-23.67-.19-3.31-.34-6.62-.52-9.93-.46-8.21-.94-16.42-1.39-24.64-.2-3.67-.35-7.34-.55-11.01-.45-7.93-.92-15.86-1.37-23.79-.18-3.19-.34-6.38-.51-9.57-.34-6.54-.68-13.08-1.03-19.62-.01-.28,0-.62-.14-.81-.23-.31-.62-.74-.88-.71-.31,.04-.71,.49-.8,.84-.17,.69-.18,1.42-.22,2.14-.35,6.66-.68,13.32-1.04,19.98-.39,7.22-.8,14.43-1.2,21.65-.4,7.21-.8,14.43-1.2,21.64-.4,7.26-.8,14.51-1.2,21.77-.4,7.22-.79,14.43-1.2,21.65-.28,4.86-.58,9.72-.88,14.58-.16,2.53-1.8,4.1-4.36,4.11-7.19,.01-14.38,.01-21.57,0-2.63,0-4.35-1.73-4.35-4.36,0-55.99,0-111.99,0-167.98,0-2.67,1.73-4.32,4.49-4.32,22.33,0,44.66,0,66.99,0,2.97,0,4.59,1.61,4.59,4.57,0,27.96,0,55.91,0,83.87Z"/>
  <path class="cls-2" d="M147.96,81.19c.71,6.45,.75,12.77,.08,19.12-.65,6.15-1.96,12.13-4.37,17.84-5.72,13.55-15.84,21.72-30.2,24.64-4.91,1-9.88,1.36-14.88,1.16-7.68-.3-15.14-1.64-22.05-5.23-8.96-4.65-14.94-11.95-18.67-21.2-2.65-6.57-3.93-13.45-4.41-20.51-.34-5.08-.22-10.14,.3-15.19,.02-.19,.06-.38,.11-.63h94.09Z"/>
  <path class="cls-2" d="M37.53,585.32h2.95v7.43c-.27,.03-.57,.11-.87,.11-4.27,0-8.55-.02-12.82,.02-.9,0-1.17-.27-1.15-1.16,.06-2.07,.02-4.14,.02-6.35h2.87v-182.38h-5.85v-35.84h20.82v35.62c-1.39,0-2.93,.08-4.46-.03-1.23-.09-1.53,.32-1.53,1.54,.03,59.88,.03,119.76,.03,179.64v1.38Z"/>
  <path class="cls-2" d="M131.2,599.78c-2.97,0-5.93,0-8.9,0-1.47-.08-2.95-.14-4.42-.25-2.33-.17-4.12-1.97-4.15-4.32-.06-3.52-.06-7.03,0-10.55,.04-2.38,2.02-4.33,4.39-4.34,4.51-.03,9.02-.06,13.53,.03,.9,.02,2,.34,2.63,.92,2.77,2.57,5.51,5.2,8.03,8.01,1.02,1.13,1.6,2.74,2.11,4.23,.52,1.5-.03,3.02-1.46,3.68-1.89,.88-3.91,1.56-5.95,2-1.89,.41-3.88,.4-5.82,.58Z"/>
  <path class="cls-2" d="M79.66,599.78c-3.04,0-6.09,0-9.13,0-3.18-.49-6.35-.96-9.53-1.47-.46-.07-.9-.31-1.33-.53-2.22-1.1-3.06-3.01-2.03-5.26,.76-1.65,1.7-3.3,2.92-4.62,2.12-2.31,4.46-4.45,6.84-6.49,.75-.64,1.94-1.02,2.94-1.04,4.35-.11,8.7-.06,13.04-.04,2.79,.01,4.64,1.88,4.65,4.67,0,3.32,0,6.63,0,9.95,0,2.69-1.76,4.49-4.44,4.61-1.31,.06-2.62,.15-3.94,.22Z"/>
</svg>