<?xml version="1.0" encoding="UTF-8"?>
<svg id="Warstwa_1" data-name="Warstwa 1" xmlns="http://www.w3.org/2000/svg" viewBox="0 0 280.32 281.28">
  <defs>
    <style>
      .cls-1 {
        fill: transparent;
      }
    </style>
  </defs>
  <path d="M135.96,0c2.96,0,5.91,0,8.87,0,.31,.05,.61,.13,.92,.15,11.87,.49,23.48,2.45,34.85,5.88,1.73,.52,3.43,1.11,5.14,1.67l-.06,.23h-44.76v10.28h1.64c21.62,0,43.24,0,64.86-.02,1.12,0,2.09,.23,3.03,.84,3.21,2.09,6.46,4.13,9.68,6.2,.31,.2,.58,.46,1.11,.9h-80.34v10.24c.63,0,1.18,0,1.72,0,29.53,0,59.07,.02,88.6-.05,2.07,0,3.63,.46,5.05,2,1.82,1.98,3.85,3.77,5.79,5.65l-.2,.37h-101.04c0,2.8,0,5.43,0,8.07q0,2.18,2.13,2.18c15.47,0,30.93,0,46.4,0,20.1,0,40.2,0,60.31-.02,.93,0,1.55,.23,2.09,1.02,1.4,2.04,2.88,4.03,4.32,6.04,.17,.24,.27,.52,.48,.94h-115.72c0,2.93,0,5.76,0,8.59q0,1.65,1.7,1.65c39.53,0,79.05,0,118.58,0,.4,0,.81-.04,1.2,.02,.28,.04,.68,.15,.79,.36,1.29,2.41,2.54,4.84,3.91,7.5h-126.1v10.26h1.72c42.32,0,84.65,0,126.97,0,.36,0,.73-.05,1.08,.02,.27,.06,.66,.22,.73,.42,.89,2.42,1.73,4.86,2.65,7.5-.8,0-1.35,0-1.9,0-43.08,0-86.16,0-129.25,0-.36,0-.72,.03-1.08,0-.79-.09-1.03,.26-1.02,1.03,.04,2.8,.01,5.59,.02,8.39,0,.26,.08,.52,.14,.86,.61,0,1.17,0,1.72,0,44.12,0,88.24,0,132.36,0,.36,0,.74-.07,1.07,.03,.28,.08,.68,.33,.73,.57,.51,2.37,.97,4.75,1.47,7.3H140.96v10.3h138.74c.16,2.63,.32,5.19,.49,7.9H140.94v10.35h139.25c-.17,2.69-.34,5.25-.51,7.89H140.94v10.31h137.42c-.44,2.24-.91,4.34-1.24,6.47-.17,1.14-.64,1.43-1.78,1.42-44.28-.03-88.56-.03-132.84-.03h-1.54v10.34h133.08c-.77,2.26-1.53,4.35-2.18,6.48-.33,1.07-.84,1.44-2.01,1.44-42.44-.04-84.89-.03-127.33-.03h-1.58v10.32h126.04c-1.21,2.36-2.37,4.53-3.42,6.75-.44,.94-1.02,1.18-2.02,1.18-39.69-.03-79.37-.02-119.06-.02-.51,0-1.01,0-1.53,0v10.33h115.57c-.28,.47-.46,.81-.68,1.12-1.32,1.85-2.69,3.67-3.97,5.55-.6,.87-1.27,1.2-2.35,1.2-35.65-.03-71.3-.03-106.95-.03-.54,0-1.08,0-1.74,0,0,2.97,0,5.76,0,8.55q0,1.73,1.74,1.73c32.57,0,65.14,0,97.71,0,.52,0,1.05,0,1.81,0-2.47,2.48-4.71,4.7-6.89,6.96-.72,.75-1.5,1-2.54,1-30.05-.02-60.11-.02-90.16-.02-.51,0-1.02,0-1.59,0v10.3h80.28c-.6,.47-.88,.73-1.2,.93-3.3,2.1-6.58,4.24-9.92,6.27-.73,.44-1.71,.7-2.57,.7-21.66,.04-43.32,.03-64.98,.03-.51,0-1.02,0-1.6,0v10.28c7.46,0,14.84,0,22.22,0s14.76,0,22.14,0c-.28,.38-.57,.49-.87,.59-22.75,7.52-45.92,9.26-69.48,4.81-29.13-5.51-54.04-18.96-74.75-40.14-15.39-15.74-26.41-34.17-33.13-55.13C1.22,164.97-.68,146.34,1.03,127.33c1.01-11.26,3.39-22.24,7.11-32.92,6.78-19.45,17.32-36.6,31.6-51.43,11.7-12.15,25.16-21.89,40.37-29.18C95.91,6.23,112.54,1.77,130.01,.46,132,.31,133.98,.15,135.96,0Z"/>
  <path class="cls-1" d="M135.96,0c-1.98,.15-3.97,.31-5.95,.46-17.47,1.31-34.1,5.77-49.89,13.34-15.21,7.29-28.67,17.04-40.37,29.18-14.28,14.83-24.83,31.98-31.6,51.43-3.72,10.68-6.1,21.66-7.11,32.92-1.71,19,.19,37.64,6.02,55.83,6.72,20.97,17.73,39.39,33.13,55.13,20.71,21.18,45.63,34.63,74.75,40.14,23.56,4.46,46.73,2.72,69.48-4.81,.3-.1,.59-.21,.87-.59-7.38,0-14.76,0-22.14,0s-14.76,0-22.22,0v-10.28c.58,0,1.09,0,1.6,0,21.66,0,43.32,0,64.98-.03,.86,0,1.83-.26,2.57-.7,3.34-2.03,6.62-4.16,9.92-6.27,.32-.2,.61-.47,1.2-.93h-80.28v-10.3c.57,0,1.08,0,1.59,0,30.05,0,60.11,0,90.16,.02,1.04,0,1.81-.25,2.54-1,2.19-2.26,4.43-4.48,6.89-6.96-.76,0-1.29,0-1.81,0-32.57,0-65.14,0-97.71,0q-1.74,0-1.74-1.73c0-2.79,0-5.58,0-8.55,.66,0,1.2,0,1.74,0,35.65,0,71.3,0,106.95,.03,1.09,0,1.76-.33,2.35-1.2,1.28-1.88,2.65-3.7,3.97-5.55,.22-.31,.4-.66,.68-1.12h-115.57v-10.33c.52,0,1.02,0,1.53,0,39.69,0,79.37,0,119.06,.02,1,0,1.58-.24,2.02-1.18,1.05-2.22,2.22-4.39,3.42-6.75h-126.04v-10.32h1.58c42.44,0,84.89,0,127.33,.03,1.17,0,1.68-.37,2.01-1.44,.65-2.13,1.41-4.22,2.18-6.48H140.96v-10.34h1.54c44.28,0,88.56,0,132.84,.03,1.14,0,1.61-.28,1.78-1.42,.32-2.13,.8-4.23,1.24-6.47H140.94v-10.31h138.75c.17-2.64,.33-5.2,.51-7.89H140.94v-10.35h139.24c-.17-2.71-.33-5.28-.49-7.9H140.96v-10.3h137.4c-.5-2.54-.96-4.93-1.47-7.3-.05-.24-.45-.48-.73-.57-.33-.1-.71-.03-1.07-.03-44.12,0-88.24,0-132.36,0-.56,0-1.11,0-1.72,0-.06-.34-.14-.6-.14-.86,0-2.8,.02-5.6-.02-8.39-.01-.77,.23-1.12,1.02-1.03,.36,.04,.72,0,1.08,0,43.08,0,86.16,0,129.25,0,.55,0,1.1,0,1.9,0-.92-2.64-1.76-5.08-2.65-7.5-.08-.21-.46-.37-.73-.42-.34-.07-.72-.02-1.08-.02-42.32,0-84.65,0-126.97,0h-1.72v-10.26h126.1c-1.38-2.65-2.62-5.09-3.91-7.5-.11-.21-.51-.32-.79-.36-.39-.06-.8-.02-1.2-.02-39.53,0-79.05,0-118.58,0q-1.7,0-1.7-1.65c0-2.83,0-5.66,0-8.59h115.72c-.21-.42-.31-.7-.48-.94-1.44-2.02-2.92-4-4.32-6.04-.54-.79-1.17-1.02-2.09-1.02-20.1,.02-40.2,.02-60.31,.02-15.47,0-30.93,0-46.4,0q-2.13,0-2.13-2.18c0-2.63,0-5.26,0-8.07h101.04l.2-.37c-1.94-1.87-3.96-3.67-5.79-5.65-1.42-1.54-2.97-2-5.05-2-29.53,.07-59.07,.05-88.6,.05-.55,0-1.1,0-1.72,0v-10.24h80.34c-.54-.44-.81-.7-1.11-.9-3.23-2.07-6.47-4.11-9.68-6.2-.94-.61-1.91-.84-3.03-.84-21.62,.03-43.24,.02-64.86,.02h-1.64V7.93h44.76l.06-.23c-1.71-.56-3.42-1.15-5.14-1.67-11.37-3.43-22.99-5.39-34.85-5.88-.31-.01-.62-.1-.92-.15,45.16,0,90.32,0,135.48,0V281.28H0C0,187.52,0,93.76,0,0c45.32,0,90.64,0,135.96,0Z"/>
</svg>